<svg xmlns="http://www.w3.org/2000/svg" width="1200" height="630" viewBox="0 0 1200 630">
  <rect width="1200" height="630" fill="#f8fafc"/>
  <rect x="64" y="64" width="1072" height="502" rx="24" fill="#ffffff" stroke="#d6dee9" stroke-width="2"/>
  <g transform="translate(104 104)">
    <rect width="92" height="92" rx="18" fill="#111827"/>
    <path d="M19 61 46 18l27 43H19Z" fill="none" stroke="#f5b45b" stroke-width="6" stroke-linejoin="round"/>
    <path d="M33 56h26" stroke="#66a3ff" stroke-width="7" stroke-linecap="round"/>
    <circle cx="46" cy="46" r="5" fill="#ffffff"/>
  </g>
  <text x="224" y="151" fill="#111827" font-family="Inter, Arial, sans-serif" font-size="42" font-weight="800">Pnevma Tools</text>
  <text x="104" y="286" fill="#111827" font-family="Inter, Arial, sans-serif" font-size="76" font-weight="900">QR Code Scanner</text>
  <text x="108" y="344" fill="#64748b" font-family="Inter, Arial, sans-serif" font-size="32" font-weight="600">Camera, upload, paste, decoded text</text>
  <text x="108" y="472" fill="#1f6feb" font-family="Inter, Arial, sans-serif" font-size="28" font-weight="800">Safe result preview before opening links</text>
  <g transform="translate(824 126)" fill="none" stroke-linejoin="round">
    <rect x="0" y="0" width="252" height="252" rx="22" fill="#eef2f7" stroke="#cbd5e1" stroke-width="2"/>
    <path d="M36 36h58v58H36V36Zm122 0h58v58h-58V36ZM36 158h58v58H36v-58Z" stroke="#1f6feb" stroke-width="16"/>
    <path d="M166 166h28v-28h34v72h-34v28h-72v-72h44Z" stroke="#e2434b" stroke-width="16"/>
    <path d="M66 66h4M188 66h4M66 188h4M126 126h34M126 70h4M216 216h4" stroke="#c87918" stroke-width="14" stroke-linecap="round"/>
  </g>
</svg>
